 <svg  version="1.0" xmlns="http://www.w3.org/2000/svg"  width="300.000000pt" height="300.000000pt" viewBox="0 0 300.000000 300.000000"  preserveAspectRatio="xMidYMid meet">  <g transform="translate(0.000000,300.000000) scale(0.050000,-0.050000)" fill="#ffffff" stroke="none"> <path d="M2160 5973 c0 -29 -195 -221 -229 -226 -12 -1 -31 -3 -44 -5 -92 -9 -398 -421 -351 -473 8 -8 5 -10 -7 -4 -11 7 -70 -32 -130 -86 -80 -72 -135 -103 -207 -119 -381 -82 -783 -616 -744 -989 39 -367 39 -359 -10 -391 -350 -231 -376 -440 -165 -1300 18 -71 42 -136 55 -144 12 -8 23 -24 25 -35 1 -12 3 -30 5 -41 10 -82 274 -285 306 -235 16 25 42 2 62 -55 5 -12 21 -9 40 7 28 23 38 22 65 -5 17 -18 24 -33 15 -34 -14 -2 69 -27 149 -45 14 -3 37 -17 50 -32 20 -22 19 -24 -5 -10 -16 9 -5 -14 26 -52 130 -161 266 -367 229 -349 -14 7 -11 1 5 -14 17 -14 45 -57 63 -96 44 -96 197 -264 228 -252 14 5 31 -4 38 -21 6 -18 24 -26 41 -20 17 7 30 2 30 -9 0 -11 9 -15 20 -8 11 7 20 4 20 -7 0 -43 157 -275 202 -298 26 -13 35 -25 19 -25 -16 0 36 -64 114 -142 90 -90 151 -136 167 -127 13 8 19 7 13 -3 -6 -10 2 -30 17 -44 15 -14 28 -20 28 -13 0 7 22 -14 49 -46 27 -33 98 -96 157 -142 l108 -83 388 0 388 1 135 114 c77 65 135 129 135 151 0 26 10 33 36 25 39 -12 365 276 364 322 0 12 14 28 31 35 17 6 26 20 20 31 -7 10 4 28 24 39 19 12 27 21 16 21 -10 1 -4 12 13 26 18 14 49 57 70 95 20 39 55 73 76 77 22 4 43 15 47 25 3 10 13 14 22 9 39 -24 281 264 281 333 0 21 9 33 20 26 20 -12 27 12 21 73 -1 17 12 38 29 44 18 7 27 22 20 33 -6 11 20 48 60 83 40 35 99 102 132 150 35 51 76 87 98 87 21 0 44 10 52 23 8 14 5 18 -8 10 -11 -8 -27 -5 -34 7 -7 11 1 20 18 20 16 0 35 -9 42 -20 7 -11 23 -20 36 -20 14 0 12 8 -6 20 -26 17 -25 19 3 20 19 0 38 11 43 25 7 20 14 20 36 0 26 -25 76 -37 52 -13 -7 7 2 27 19 44 25 25 34 26 47 4 13 -22 34 -16 99 27 92 61 207 207 188 239 -8 11 -3 14 10 6 22 -14 31 10 24 64 -2 15 8 41 23 58 14 17 23 52 19 78 -3 25 6 67 20 92 13 25 24 73 22 106 -2 40 1 47 9 20 18 -64 105 403 106 566 0 151 -76 361 -121 333 -11 -6 -18 -1 -14 12 3 14 -48 65 -112 115 -130 100 -125 72 -72 359 64 347 -104 664 -503 944 -79 55 -176 106 -216 113 -39 7 -99 28 -132 45 -33 17 -69 32 -80 32 -11 1 -20 10 -20 22 0 11 -48 69 -106 127 -64 64 -102 118 -96 135 6 16 -2 34 -18 40 -16 6 -25 19 -19 29 14 23 -151 201 -174 186 -10 -6 -16 -1 -12 11 3 12 -85 68 -195 125 -264 136 -265 136 -301 136 -18 0 -45 14 -62 30 -42 42 -1447 46 -1447 3z m1020 -102 c408 -61 913 -286 1036 -461 37 -51 62 -98 57 -104 -22 -22 -85 18 -125 79 -80 125 -555 341 -886 403 -290 55 -804 49 -901 -10 l-70 -43 45 -36 c58 -46 56 -52 -21 -67 -112 -22 -371 -134 -413 -179 -22 -24 -72 -75 -110 -114 -68 -68 -84 -159 -28 -159 11 0 14 -15 7 -34 -7 -19 -7 -28 1 -21 30 30 70 -28 43 -61 -21 -26 -20 -29 5 -15 17 8 1 -12 -34 -47 -66 -64 -99 -81 -74 -37 8 14 -5 5 -29 -19 -24 -24 -43 -55 -43 -68 0 -14 -6 -19 -13 -12 -7 7 -38 -5 -69 -27 -55 -40 -138 -23 -138 27 0 9 -9 11 -20 4 -11 -7 -20 -3 -20 9 0 11 -18 21 -41 21 -30 0 -35 6 -20 25 12 14 47 58 78 99 67 87 208 208 261 225 21 7 64 63 95 125 67 133 182 208 455 295 30 9 33 18 15 36 -142 142 444 243 957 166z m-15 -141 c320 -48 860 -269 918 -376 28 -52 -94 -262 -140 -243 -80 34 -453 149 -483 149 -49 0 -60 19 -39 72 24 65 -8 61 -38 -4 -14 -31 -35 -48 -52 -41 -173 66 -973 -11 -1101 -106 -11 -9 -61 -29 -112 -46 l-92 -31 -58 100 c-67 114 -68 112 52 171 l90 45 -75 -11 c-146 -21 -61 28 213 123 205 71 632 108 668 58 8 -11 37 -22 64 -24 60 -5 158 -25 200 -40 17 -6 48 -14 70 -17 174 -26 660 -217 638 -252 -6 -9 -1 -17 9 -17 11 0 34 -14 51 -31 27 -27 34 -24 61 29 45 88 43 92 -104 173 -342 188 -677 279 -1095 297 -179 8 -217 6 -151 -8 145 -31 140 -39 -17 -26 -159 13 -278 54 -209 72 84 22 551 12 732 -16z m1267 -542 c104 -80 190 -174 213 -233 13 -32 28 -37 83 -27 66 13 172 -18 172 -50 0 -8 -27 -2 -59 15 -45 22 -77 25 -129 10 -50 -14 -72 -13 -78 4 -9 24 -103 -81 -105 -117 -1 -30 -52 -13 -90 31 -18 21 -39 32 -46 25 -7 -7 -14 5 -15 26 0 21 -6 27 -11 14 -6 -16 -28 -6 -64 30 -29 30 -77 66 -107 82 -61 31 -60 93 2 142 21 16 44 50 51 75 19 64 73 56 183 -27z m-1077 -58 c678 -129 1244 -561 1342 -1026 41 -189 26 -621 -19 -593 -25 15 -23 109 2 109 23 0 25 83 7 257 -7 67 -20 117 -29 112 -9 -6 -26 28 -39 75 -30 110 -82 213 -153 298 -30 38 -41 56 -23 42 72 -56 53 15 -22 82 -119 108 -174 139 -225 126 -25 -6 -35 -6 -21 0 46 21 26 44 -90 108 -140 77 -564 223 -594 205 -11 -8 24 -26 79 -41 126 -34 375 -126 365 -135 -3 -4 -69 16 -146 43 -414 151 -893 186 -1289 96 -41 -9 -45 -7 -20 12 52 40 -122 6 -304 -60 -197 -72 -442 -208 -346 -193 55 8 56 7 21 -18 -20 -16 -58 -23 -83 -17 -37 10 -72 -13 -177 -116 -116 -113 -175 -204 -106 -164 14 8 11 -2 -7 -24 -17 -21 -53 -96 -79 -168 -25 -71 -55 -136 -65 -143 -30 -20 -45 -377 -15 -377 28 0 20 -99 -9 -106 -62 -13 -54 463 11 676 198 638 1194 1099 2034 940z m-2126 -207 c-10 -10 -50 -28 -89 -40 l-70 -22 47 39 c45 38 153 60 112 23z m156 -80 c10 -10 -30 -45 -98 -83 -245 -138 -487 -353 -487 -433 0 -34 -64 -67 -129 -67 -61 0 -60 -6 -12 102 107 241 450 529 609 510 55 -6 107 -19 117 -29z m925 -12 c-77 -25 -158 -52 -180 -60 -40 -14 -40 -14 0 11 47 30 248 96 290 95 17 0 -33 -21 -110 -46z m2679 -81 c307 -239 466 -490 312 -490 -50 0 -71 17 -128 107 -76 119 -169 200 -399 350 -165 107 -178 123 -120 146 103 40 166 19 335 -113z m-2144 -30 c13 -22 36 -40 51 -40 19 0 20 10 4 40 -20 38 -15 40 100 40 115 0 120 -2 100 -40 -12 -22 -13 -40 -4 -40 10 0 34 18 54 40 72 79 98 31 30 -55 -52 -66 -37 -80 34 -30 31 22 88 55 126 73 l70 34 -70 -61 c-66 -58 -67 -61 -20 -52 217 40 330 52 336 33 4 -11 20 -15 35 -9 16 6 29 1 29 -12 0 -13 8 -18 19 -12 10 6 25 1 33 -12 9 -14 6 -18 -9 -9 -14 9 -23 2 -23 -17 0 -18 -17 -31 -40 -31 -22 0 -40 9 -40 20 0 11 -14 20 -32 20 -20 0 -28 11 -21 29 9 23 2 26 -33 12 -24 -9 -93 -32 -154 -50 -60 -19 -123 -39 -140 -46 -27 -10 -27 -7 0 25 53 64 -92 -22 -192 -114 l-88 -81 -88 81 c-81 74 -189 144 -225 144 -8 0 3 -14 24 -32 38 -31 38 -31 -1 -17 -22 8 -91 29 -154 47 -207 59 -121 80 124 30 53 -11 24 24 -60 72 -16 9 -25 22 -18 28 6 7 63 -20 127 -58 143 -86 148 -87 84 -2 -47 62 -51 92 -10 92 9 0 28 -18 42 -40z m-1579 -105 c-57 -80 -186 -320 -186 -346 0 -7 35 15 78 49 106 84 109 80 41 -57 -32 -65 -59 -128 -59 -140 0 -11 -45 -43 -100 -71 -79 -40 -100 -45 -100 -21 0 17 29 45 65 63 109 56 131 120 34 101 -56 -11 -60 -9 -48 32 30 100 183 366 247 429 90 87 104 68 28 -39z m1124 50 c-4 -19 -8 -47 -8 -61 -1 -15 -12 -20 -24 -13 -12 8 -29 3 -37 -10 -11 -18 -19 -16 -28 7 -7 20 -1 32 17 32 16 0 35 22 42 50 14 55 48 51 38 -5z m2517 -245 c132 -250 131 -247 53 -230 -96 21 -73 -42 35 -98 57 -29 91 -92 50 -92 -71 1 -175 106 -236 237 -59 127 -44 188 21 83 7 -11 30 -29 52 -41 46 -25 -39 161 -145 315 -72 104 -72 117 0 74 39 -22 94 -103 170 -248z m-3544 173 c-12 -44 -156 -187 -172 -170 -10 9 154 215 172 216 8 1 8 -20 0 -46z m3348 -44 c41 -49 71 -94 65 -99 -16 -17 -156 124 -156 158 0 47 10 41 91 -59z m700 -199 c18 -48 30 -97 26 -110 -5 -13 -31 36 -60 109 -29 73 -40 122 -25 110 14 -12 41 -61 59 -109z m-4820 -91 c-35 -83 -41 -33 -7 63 14 39 27 55 31 37 3 -17 -7 -62 -24 -100z m1834 82 c170 -43 405 -155 464 -220 35 -38 76 -301 48 -301 -40 0 -675 228 -771 277 -125 63 -215 76 -343 51 -101 -21 -73 -38 63 -40 73 -2 151 -16 185 -34 l59 -32 -56 -1 c-30 -1 -88 -14 -127 -31 -123 -52 -353 -41 -336 15 87 288 419 417 814 316z m433 -23 c59 -20 111 -41 116 -45 4 -5 68 12 142 37 278 94 337 86 131 -18 -102 -52 -197 -114 -215 -143 l-34 -50 -53 63 c-29 35 -125 99 -214 142 -180 89 -110 96 127 14z m1242 13 c133 -67 280 -236 280 -320 0 -42 -227 -43 -327 -1 -39 17 -97 30 -127 31 l-56 1 60 32 c35 19 111 33 184 34 151 2 134 31 -27 46 -109 10 -131 4 -278 -69 -132 -67 -312 -131 -704 -254 -43 -13 -45 -9 -45 105 0 146 33 194 194 278 300 158 666 208 846 117z m-2859 -128 c-21 -76 -61 -132 -61 -85 0 33 64 185 74 175 5 -5 -1 -45 -13 -90z m-399 -103 l35 -100 -64 -124 c-85 -167 -97 -164 -140 39 -63 303 -62 283 -20 273 21 -6 60 -2 87 9 61 23 59 25 102 -97z m4392 98 c17 -17 12 -39 -16 -85 -21 -35 -38 -90 -39 -123 0 -54 -3 -57 -27 -25 -22 30 -21 53 6 145 34 116 40 124 76 88z m146 -23 c0 -14 -18 -88 -40 -165 -22 -77 -40 -170 -40 -207 0 -78 -35 -77 -79 2 -49 87 63 395 143 395 9 0 16 -11 16 -25z m-3410 -256 c160 -11 428 -50 626 -89 411 -83 422 -83 709 -22 458 99 986 151 1222 121 l113 -14 0 -127 c0 -71 -8 -128 -17 -128 -10 0 -22 -149 -27 -330 -10 -384 15 -341 -286 -490 -333 -164 -444 -171 -610 -40 -42 34 -30 32 80 -12 169 -68 230 -59 497 75 l213 107 26 100 c28 113 59 571 48 713 l-8 94 -172 14 c-233 19 -591 -16 -1027 -102 l-360 -71 -343 70 c-413 85 -815 124 -1062 103 l-178 -15 14 -303 c28 -599 37 -616 398 -765 197 -81 251 -83 392 -17 123 57 157 54 56 -6 -201 -118 -274 -110 -622 71 -261 135 -250 114 -257 519 -4 226 -11 285 -32 285 -21 0 -25 17 -15 63 6 34 12 92 12 128 0 92 110 105 610 68z m-901 -77 c6 -10 -4 -45 -23 -78 -32 -56 -32 -72 2 -287 35 -227 22 -358 -32 -324 -10 6 -17 -1 -15 -16 8 -60 -2 -163 -15 -150 -10 11 -71 283 -128 582 -5 26 4 42 27 47 25 5 35 -6 35 -38 0 -110 69 -398 95 -398 17 0 24 14 17 35 -6 19 -21 98 -34 175 -13 77 -35 163 -50 192 -20 40 -21 57 -2 76 19 20 12 22 -33 11 l-57 -14 32 61 c49 96 154 169 181 126z m3930 -15 c50 -29 121 -122 121 -157 0 -8 -20 -9 -44 -3 -40 10 -38 6 12 -33 l56 -45 -50 -230 c-28 -126 -57 -265 -65 -309 -13 -77 -15 -78 -33 -30 -11 28 -36 86 -56 131 -34 79 -34 88 5 314 l41 232 -42 70 c-56 95 -38 115 55 60z m-2811 -88 c172 -24 466 -105 499 -138 174 -174 -353 -704 -672 -675 -159 14 -373 92 -410 149 -43 66 -60 540 -21 592 60 78 330 110 604 72z m2048 -1 c203 -36 213 -53 197 -346 -20 -358 -27 -368 -307 -440 -263 -69 -402 -18 -658 237 -256 254 -258 396 -8 472 302 92 548 116 776 77z m-1330 -209 c-60 -109 -71 -107 -43 7 16 60 32 84 58 84 33 0 31 -9 -15 -91z m231 7 c28 -112 15 -118 -36 -19 -49 96 -49 103 -13 103 15 0 36 -36 49 -84z m-2397 -31 c-1 -69 -6 -87 -20 -65 -11 17 -20 21 -20 10 0 -11 -40 -36 -88 -56 -119 -49 -162 -100 -159 -191 4 -128 96 -513 124 -518 14 -4 21 3 14 13 -6 11 -3 24 7 31 20 12 9 148 -19 236 -18 58 40 99 182 128 47 10 119 -213 119 -366 0 -11 -54 -45 -120 -77 -66 -32 -120 -64 -120 -72 0 -16 150 15 201 43 63 33 74 22 89 -94 7 -62 19 -126 25 -142 9 -24 -1 -24 -57 3 -37 18 -51 21 -29 7 21 -14 57 -45 80 -70 22 -25 67 -72 98 -105 45 -48 51 -62 27 -71 -53 -21 -184 -1 -179 27 3 14 -19 47 -50 73 -63 55 -88 50 -37 -7 48 -52 10 -70 -74 -35 -125 52 -148 119 -327 954 -32 151 173 425 328 439 3 0 5 -43 5 -95z m4795 -117 c62 -108 57 -181 -37 -618 -88 -407 -108 -464 -189 -527 -116 -91 -177 -79 -107 20 l47 66 -74 -57 c-41 -31 -75 -74 -75 -94 0 -31 -15 -38 -87 -38 -115 0 -123 14 -52 88 32 34 83 87 112 117 49 52 41 81 -9 31 -29 -29 -30 -21 -2 137 23 133 33 142 104 103 56 -29 194 -55 194 -36 0 8 -58 40 -130 72 -85 38 -126 67 -119 85 5 15 24 102 42 195 37 186 38 187 178 127 151 -64 153 -32 4 43 -90 44 -132 76 -125 94 5 15 10 43 10 61 0 19 28 51 62 71 l62 37 46 -53 c51 -60 80 -66 98 -19 8 19 -2 43 -23 59 -42 31 -150 73 -138 52 5 -8 -13 -30 -39 -50 -55 -41 -72 1 -18 46 17 14 30 40 30 57 -1 29 -3 29 -20 3 -15 -23 -19 -18 -20 23 0 30 -6 70 -14 89 -27 73 240 -97 289 -184z m-5156 7 c-84 -186 91 -1072 237 -1202 114 -101 373 -155 497 -103 92 39 87 41 87 -36 0 -37 14 -115 32 -173 l31 -106 54 75 53 75 15 -137 c23 -210 271 -668 274 -508 4 141 136 7 284 -286 78 -155 264 -349 545 -567 235 -184 239 -184 261 -34 l13 86 119 -125 119 -124 109 115 c131 138 123 136 140 25 19 -128 22 -127 273 68 286 222 455 398 536 559 35 68 106 183 157 255 l94 130 21 -76 21 -75 84 117 c102 142 158 285 176 451 l15 125 39 -62 c21 -34 47 -62 56 -62 23 0 79 190 79 266 0 48 6 56 35 43 216 -91 517 -7 607 171 127 250 239 983 171 1121 -45 88 -25 100 26 16 94 -152 93 -188 -10 -656 -131 -594 -147 -621 -436 -712 -142 -45 -174 -49 -250 -29 -48 12 -90 19 -92 16 -2 -3 -14 -73 -28 -155 -29 -178 -30 -180 -89 -124 -63 59 -67 56 -84 -52 -22 -150 -131 -363 -254 -495 l-110 -118 9 69 10 69 -90 -86 c-53 -51 -99 -119 -113 -165 -13 -43 -66 -131 -118 -196 -92 -115 -151 -169 -546 -499 l-193 -161 -26 83 c-15 46 -29 88 -33 92 -3 5 -47 -36 -96 -90 l-91 -98 -88 95 c-106 115 -100 115 -131 5 -30 -107 -20 -104 -103 -27 -37 34 -152 132 -257 217 -289 235 -539 516 -540 609 -1 12 -42 66 -92 121 l-90 100 7 -63 c25 -210 -302 264 -350 510 -29 141 -23 136 -89 84 l-55 -44 -25 97 c-14 53 -25 120 -26 150 0 70 -18 79 -109 54 -163 -45 -510 112 -568 257 -30 74 -203 871 -202 929 1 66 49 192 90 237 51 56 52 49 8 -46z m907 -72 c-151 -192 -168 -251 -54 -191 l88 47 0 -58 c0 -55 -7 -60 -95 -72 -52 -8 -106 -23 -120 -34 -90 -72 9 171 140 344 65 85 86 102 91 74 4 -20 -18 -70 -50 -110z m3575 -150 c79 -148 90 -203 34 -158 -14 11 -71 27 -126 34 -99 13 -101 15 -93 72 8 54 44 86 44 39 0 -11 11 -20 24 -20 13 0 45 -20 72 -45 l48 -45 -32 77 c-17 43 -63 120 -102 173 -38 52 -70 112 -69 133 0 58 104 -75 200 -260z m-1764 216 c13 -28 23 -53 23 -55 0 -2 -25 -4 -55 -5 -30 0 -89 -7 -130 -16 l-75 -15 34 71 c44 93 164 105 203 20z m-2321 -162 c7 -67 -205 -197 -237 -145 -16 26 17 118 43 118 8 0 34 32 59 71 52 85 124 61 135 -44z m1905 35 c-175 -246 -508 -456 -654 -412 -126 38 -124 44 11 34 164 -12 319 71 522 279 167 171 181 183 121 99z m1039 -327 c75 -38 142 -55 209 -55 107 0 111 -11 14 -39 -117 -34 -549 263 -644 441 -10 19 55 -39 146 -129 99 -98 209 -185 275 -218z m-591 327 c33 -13 29 -17 -27 -29 -97 -19 -238 -16 -251 6 -20 32 206 51 278 23z m-247 -122 c48 -32 102 -59 118 -59 17 0 70 27 118 59 86 59 182 80 182 40 0 -11 -26 -20 -58 -20 -44 0 -77 -21 -132 -85 -110 -128 -131 -173 -52 -113 156 119 192 138 252 138 47 0 90 -22 157 -82 142 -124 123 -223 -61 -332 -106 -61 -90 -81 31 -39 78 27 81 26 62 -10 -32 -58 2 -44 84 35 l74 73 89 -188 c104 -217 124 -305 94 -418 -36 -134 -72 -136 -361 -26 -246 95 -251 96 -489 96 l-240 1 -240 -96 c-278 -112 -314 -109 -350 27 -31 116 -11 210 93 422 l89 183 75 -73 c85 -83 123 -96 77 -26 l-30 46 77 -38 c130 -65 155 -33 36 45 -185 121 -191 215 -22 345 103 80 242 65 325 -35 47 -57 107 -81 82 -33 -47 87 -157 183 -209 183 -29 0 -53 9 -53 20 0 40 96 19 182 -40z m169 9 c-21 -16 -44 -29 -51 -29 -7 0 -30 13 -51 29 -36 28 -32 30 51 30 83 0 87 -2 51 -30z m-1711 -207 c0 -9 -13 -28 -29 -41 -31 -26 -118 -240 -104 -255 5 -4 28 19 52 53 24 34 70 75 102 91 89 46 96 35 14 -21 -92 -62 -94 -72 -10 -46 168 52 254 56 174 6 -83 -51 -226 -586 -149 -556 17 6 30 20 30 31 0 24 80 128 93 120 4 -3 37 32 73 78 35 46 86 98 113 116 l49 32 -54 -80 c-69 -102 -69 -131 1 -66 52 48 128 96 154 96 7 0 -3 -29 -22 -65 -32 -63 -32 -64 4 -35 33 28 35 27 21 -10 -17 -46 -52 -222 -52 -263 0 -54 31 -24 96 93 66 121 120 166 84 69 -11 -29 -20 -83 -20 -121 0 -38 -18 -123 -40 -188 -32 -95 -36 -137 -22 -201 24 -107 42 -122 43 -37 3 136 29 133 31 -4 2 -78 13 -151 26 -164 17 -17 20 -8 11 38 -7 33 -1 101 14 149 l26 89 8 -90 c6 -70 11 -81 24 -50 12 30 17 17 18 -50 1 -49 15 -107 32 -129 16 -21 29 -68 29 -104 0 -35 9 -70 20 -77 11 -7 20 9 20 37 0 63 75 308 100 323 11 7 14 -59 8 -164 l-10 -176 38 91 c65 159 233 374 176 226 -12 -30 -6 -28 34 9 l47 45 -7 -116 -7 -115 46 130 45 130 10 -160 c11 -157 25 -167 48 -33 32 181 111 257 114 108 1 -52 13 -140 26 -195 l24 -100 24 159 c32 207 36 206 49 -9 9 -171 21 -221 46 -196 5 6 17 95 26 198 15 185 16 186 31 88 9 -55 23 -131 31 -170 l14 -70 24 106 c12 58 23 146 23 195 0 150 80 76 110 -102 24 -146 39 -140 50 21 l10 160 45 -130 44 -130 -6 115 -6 116 47 -45 c44 -41 47 -42 34 -6 -11 31 0 27 49 -19 36 -33 82 -110 106 -175 57 -156 65 -147 49 58 -16 219 12 202 72 -43 47 -189 71 -189 76 -1 2 73 7 89 19 60 22 -55 50 45 35 125 -10 51 -8 52 18 16 26 -35 28 -31 29 50 1 133 44 45 46 -93 2 -154 32 -84 35 82 l2 140 24 -110 24 -110 23 91 c24 92 6 223 -37 268 -10 10 -18 62 -18 114 0 52 -9 117 -20 146 -36 96 17 52 83 -68 36 -66 71 -111 78 -100 14 23 -9 208 -33 267 -10 27 -8 34 9 24 30 -19 30 13 -1 44 -81 81 57 33 152 -53 l57 -53 -25 50 c-14 28 -39 66 -56 85 -17 19 -24 41 -17 48 16 17 168 -145 184 -196 6 -20 24 -37 40 -37 15 0 41 -25 57 -56 46 -90 92 -120 92 -61 -1 149 -99 447 -177 542 -38 46 15 48 138 5 109 -39 121 -27 29 30 -40 25 -67 49 -62 55 16 16 115 -53 176 -123 l54 -62 -17 60 c-29 103 -45 138 -95 205 -44 60 -45 65 -11 65 69 0 185 -282 185 -449 l0 -60 -106 105 c-129 128 -138 129 -100 9 37 -119 61 -585 30 -585 -12 0 -46 32 -76 71 -30 39 -86 84 -124 100 -90 38 -98 37 -45 -6 59 -48 90 -266 61 -428 -20 -106 -97 -314 -100 -267 -25 368 -69 429 -150 205 l-60 -165 -7 170 -6 170 -38 -120 c-21 -66 -39 -169 -40 -230 -2 -124 -43 -262 -67 -224 -32 53 -52 18 -52 -92 0 -85 -14 -144 -52 -221 -68 -136 -83 -119 -28 32 43 118 48 258 10 252 -11 -2 -28 -32 -38 -65 -21 -74 -38 -78 -68 -17 -19 40 -22 35 -25 -45 -1 -49 -11 -112 -20 -140 -13 -37 -15 -26 -8 40 l11 90 -68 -132 c-70 -138 -168 -278 -193 -278 -9 0 -20 61 -27 135 -6 74 -32 189 -57 255 l-47 120 -17 -295 c-17 -280 -37 -356 -65 -245 -19 76 -42 61 -108 -70 -33 -66 -65 -120 -71 -120 -6 0 -6 9 0 19 19 30 18 573 0 603 -11 18 -24 5 -41 -43 -37 -104 -35 -179 6 -179 26 0 29 -5 10 -24 -13 -13 -24 -54 -24 -91 0 -84 -40 -245 -60 -245 -19 0 -60 158 -60 230 0 29 -9 70 -21 92 -16 30 -14 41 12 51 36 14 26 119 -17 197 -20 34 -25 21 -36 -90 -7 -71 -19 -148 -27 -170 -11 -30 -10 -33 6 -11 14 20 22 -21 26 -145 8 -204 3 -209 -69 -64 -59 121 -87 136 -106 59 -26 -102 -46 -14 -60 259 -13 264 -16 275 -45 220 -41 -78 -82 -259 -83 -363 0 -142 -77 -73 -204 183 -57 117 -68 129 -79 88 -8 -30 -14 -8 -15 63 -2 125 -50 116 -50 -9 0 -39 -8 -70 -17 -70 -10 0 -12 9 -5 20 7 11 4 20 -6 20 -10 0 -27 20 -39 45 -43 92 -48 -17 -6 -136 52 -150 36 -166 -28 -27 -36 76 -51 142 -51 223 0 111 -27 152 -54 83 -24 -65 -65 58 -66 202 0 85 -16 187 -41 260 -36 107 -39 111 -31 40 4 -44 2 -120 -5 -170 l-14 -90 -57 150 c-87 227 -116 214 -148 -70 l-15 -140 -49 120 c-61 154 -69 461 -13 565 52 98 4 80 -119 -46 l-108 -111 1 216 c1 138 14 265 37 351 42 161 31 165 -92 35 -136 -144 -148 -117 -72 160 44 163 166 326 166 222z m-213 -45 c6 -26 -11 -87 -46 -155 l-57 -112 -13 100 c-8 55 -18 125 -24 155 -14 74 120 86 140 12z m3865 -107 c-22 -181 -29 -183 -89 -29 -56 144 -48 179 42 179 l67 0 -20 -150z m-506 -260 c4 -22 19 -66 32 -98 26 -64 19 -87 -13 -47 -45 54 -105 263 -63 222 20 -20 40 -55 44 -77z m-2945 -26 c-40 -119 -61 -150 -61 -89 0 24 9 48 20 55 12 7 15 22 9 32 -12 19 47 129 61 115 4 -4 -9 -55 -29 -113z m1868 -434 c127 -39 250 -70 275 -70 74 0 15 -35 -118 -69 -118 -30 -132 -30 -270 9 -179 49 -405 52 -567 7 -141 -40 -197 -41 -341 -7 -107 26 -146 60 -68 60 22 0 125 28 230 61 370 119 493 120 859 9z m51 -1486 c0 -28 -47 -64 -84 -64 -20 0 -36 9 -36 20 0 11 14 20 31 20 17 0 26 9 19 20 -7 11 6 20 29 20 22 0 41 -7 41 -16z"/> <path d="M2440 5542 c0 -10 11 -23 25 -27 14 -5 -6 -16 -45 -25 -109 -24 -340 -133 -340 -160 0 -119 103 -200 137 -108 9 24 70 72 139 107 68 36 117 71 110 78 -7 7 -4 13 6 14 62 2 95 58 58 99 -37 41 -90 54 -90 22z"/> <path d="M2754 4978 c-97 -10 -192 -27 -210 -38 -24 -15 4 -16 96 -5 171 20 606 18 720 -3 63 -11 84 -10 70 5 -17 18 -419 68 -480 60 -11 -1 -99 -10 -196 -19z"/> <path d="M3683 4228 c-47 -40 -81 -76 -77 -81 20 -20 139 52 164 100 37 72 13 67 -87 -19z"/> <path d="M3524 4200 c-35 -22 -64 -46 -64 -53 0 -8 6 -8 13 -1 7 7 28 4 47 -6 27 -14 39 -7 58 33 31 69 23 73 -54 27z"/> <path d="M1824 3465 c-176 -233 -190 -265 -118 -265 48 0 194 119 194 158 0 13 14 28 30 35 17 6 30 20 30 31 0 11 18 43 40 71 46 58 50 103 14 152 -22 32 -43 12 -190 -182z"/> <path d="M2173 3555 c-36 -57 -221 -357 -241 -390 -8 -15 -4 -25 12 -25 15 0 44 31 64 69 21 39 47 64 58 57 11 -7 15 -3 8 8 -7 11 10 50 37 87 27 37 49 77 49 89 0 12 11 33 24 46 23 23 44 104 26 104 -5 0 -22 -20 -37 -45z"/> <path d="M2185 3335 c-207 -319 -200 -306 -132 -263 75 47 128 101 113 115 -6 7 3 18 22 25 30 11 102 139 96 170 -1 7 18 12 42 10 30 -1 41 7 36 28 -5 17 -9 59 -9 95 1 85 14 99 -168 -180z"/> <path d="M3988 3657 c-32 -51 -28 -100 12 -151 22 -28 40 -60 40 -70 0 -20 9 -33 111 -151 55 -63 88 -85 131 -85 79 0 75 12 -57 195 -191 264 -217 293 -237 262z"/> <path d="M3620 3584 c0 -9 11 -27 25 -41 20 -20 19 -28 -2 -41 -36 -22 17 -128 86 -173 28 -19 44 -44 38 -60 -6 -16 3 -34 21 -41 17 -7 27 -20 21 -30 -6 -10 3 -18 21 -18 18 0 27 -9 20 -20 -7 -11 3 -20 21 -20 23 0 29 -10 20 -34 -7 -19 -7 -28 2 -20 8 8 41 -10 73 -41 l59 -55 -36 70 c-83 165 -369 571 -369 524z"/> <path d="M3780 3568 c0 -48 338 -549 340 -502 0 19 -319 534 -331 534 -5 0 -9 -15 -9 -32z"/> <path d="M5180 2880 c0 -48 66 -132 164 -208 l99 -77 -6 54 c-7 57 -257 281 -257 231z"/> <path d="M2623 2947 l-85 -81 59 -63 c50 -53 74 -63 151 -63 85 0 94 -5 131 -75 21 -41 40 -62 40 -46 1 21 9 18 32 -10 31 -38 31 -38 22 1 -27 115 -46 148 -131 241 -50 55 -102 118 -114 139 -20 36 -27 33 -105 -43z"/> <path d="M3258 2975 c-13 -25 -67 -92 -121 -149 -53 -57 -97 -121 -97 -143 0 -22 -5 -56 -12 -76 -11 -36 -10 -36 18 -1 22 27 32 29 39 10 5 -14 24 8 41 49 30 71 36 75 125 75 78 0 102 10 151 62 l58 62 -80 78 c-94 91 -92 91 -122 33z"/> <path d="M2960 2323 c0 -9 11 -16 25 -16 14 0 51 -7 83 -15 51 -13 54 -11 26 17 -33 32 -134 43 -134 14z"/> <path d="M1649 2139 c-7 -12 -25 -17 -39 -12 -32 13 -44 -32 -60 -217 l-12 -140 53 100 c30 55 68 117 86 138 31 36 31 38 -2 26 -40 -15 -43 2 -15 75 19 52 13 69 -11 30z"/> <path d="M4339 2101 c34 -62 26 -85 -24 -70 -43 14 -42 11 9 -40 29 -30 59 -80 66 -111 28 -128 77 -120 62 10 -23 200 -36 256 -52 230 -11 -17 -19 -18 -29 -2 -24 40 -54 25 -32 -17z"/> <path d="M2622 1350 c-1 -11 -37 -60 -80 -108 l-79 -88 -8 58 c-5 32 -10 -18 -10 -112 l-1 -170 35 113 c20 62 65 149 100 193 36 45 61 93 55 108 -6 14 -12 17 -12 6z"/> <path d="M3360 1349 c0 -18 31 -68 107 -176 20 -28 49 -95 63 -147 20 -72 28 -83 31 -46 2 28 6 69 9 93 2 24 -2 78 -11 120 -13 70 -15 72 -17 17 l-2 -60 -56 60 c-31 33 -71 82 -90 109 -19 28 -34 41 -34 30z"/> <path d="M2980 951 c0 -39 9 -71 20 -71 11 0 20 26 20 59 0 32 -9 64 -20 71 -12 7 -20 -16 -20 -59z"/> </g> </svg> 